<svg width="17" height="16" viewBox="0 0 17 16" fill="none" xmlns="http://www.w3.org/2000/svg">
<path fill-rule="evenodd" clip-rule="evenodd" d="M7.8335 1.33301C6.94944 1.33301 6.10159 1.6842 5.47647 2.30932C4.85135 2.93444 4.50016 3.78229 4.50016 4.66634C4.50016 5.5504 4.85135 6.39824 5.47647 7.02336C6.10159 7.64848 6.94944 7.99967 7.8335 7.99967C8.71755 7.99967 9.5654 7.64848 10.1905 7.02336C10.8156 6.39824 11.1668 5.5504 11.1668 4.66634C11.1668 3.78229 10.8156 2.93444 10.1905 2.30932C9.5654 1.6842 8.71755 1.33301 7.8335 1.33301ZM5.8335 4.66634C5.8335 4.4037 5.88523 4.14363 5.98574 3.90097C6.08625 3.65832 6.23356 3.43784 6.41928 3.25213C6.605 3.06641 6.82548 2.91909 7.06813 2.81858C7.31078 2.71807 7.57085 2.66634 7.8335 2.66634C8.09614 2.66634 8.35621 2.71807 8.59886 2.81858C8.84151 2.91909 9.06199 3.06641 9.24771 3.25213C9.43343 3.43784 9.58075 3.65832 9.68125 3.90097C9.78176 4.14363 9.8335 4.4037 9.8335 4.66634C9.8335 5.19677 9.62278 5.70548 9.24771 6.08055C8.87264 6.45563 8.36393 6.66634 7.8335 6.66634C7.30306 6.66634 6.79435 6.45563 6.41928 6.08055C6.04421 5.70548 5.8335 5.19677 5.8335 4.66634ZM3.16683 12.333C3.16683 12.213 3.22683 12.007 3.44216 11.7337C3.65283 11.467 3.97816 11.1817 4.4095 10.919C5.2715 10.3923 6.48483 9.99967 7.8335 9.99967C8.08372 9.99967 8.32927 10.0128 8.57016 10.039C8.74609 10.0577 8.92222 10.0057 9.05981 9.89445C9.1974 9.78325 9.28518 9.62193 9.30383 9.44601C9.32248 9.27008 9.27049 9.09395 9.15928 8.95636C9.04807 8.81877 8.88676 8.73099 8.71083 8.71234C8.41935 8.68219 8.12653 8.66683 7.8335 8.66634C6.23683 8.66634 4.7835 9.12901 3.71483 9.78101C3.1815 10.1063 2.7255 10.4903 2.39616 10.9077C2.07216 11.317 1.8335 11.8083 1.8335 12.333C1.8335 12.8963 2.1075 13.3403 2.50216 13.657C2.8755 13.957 3.36816 14.1557 3.8915 14.2943C4.9435 14.5723 6.3475 14.6663 7.8335 14.6663L8.29016 14.663C8.37771 14.6618 8.46417 14.6434 8.5446 14.6088C8.62503 14.5742 8.69786 14.5241 8.75893 14.4614C8.82 14.3986 8.86811 14.3245 8.90053 14.2431C8.93294 14.1618 8.94901 14.0749 8.94783 13.9873C8.94665 13.8998 8.92823 13.8133 8.89364 13.7329C8.85904 13.6525 8.80894 13.5796 8.7462 13.5186C8.68346 13.4575 8.60931 13.4094 8.52797 13.377C8.44663 13.3446 8.35971 13.3285 8.27216 13.3297L7.8335 13.333C6.3735 13.333 5.1115 13.2377 4.2335 13.005C3.7915 12.8883 3.50283 12.7503 3.33683 12.617C3.1915 12.5003 3.16683 12.4143 3.16683 12.333ZM12.5002 9.33301C12.677 9.33301 12.8465 9.40324 12.9716 9.52827C13.0966 9.65329 13.1668 9.82286 13.1668 9.99967V11.9997C13.1668 12.1765 13.0966 12.3461 12.9716 12.4711C12.8465 12.5961 12.677 12.6663 12.5002 12.6663C12.3234 12.6663 12.1538 12.5961 12.0288 12.4711C11.9037 12.3461 11.8335 12.1765 11.8335 11.9997V9.99967C11.8335 9.82286 11.9037 9.65329 12.0288 9.52827C12.1538 9.40324 12.3234 9.33301 12.5002 9.33301ZM12.5002 13.333C12.3302 13.3332 12.1668 13.3983 12.0433 13.5149C11.9197 13.6316 11.8453 13.791 11.8354 13.9606C11.8254 14.1302 11.8806 14.2973 11.9897 14.4276C12.0987 14.5579 12.2534 14.6416 12.4222 14.6617L12.5015 14.6663C12.6714 14.6662 12.8349 14.6011 12.9584 14.4844C13.082 14.3678 13.1563 14.2084 13.1663 14.0387C13.1762 13.8691 13.121 13.7021 13.012 13.5718C12.9029 13.4415 12.7482 13.3577 12.5795 13.3377L12.5002 13.333Z" fill="white"/>
</svg>
