<svg width="16" height="16" viewBox="0 0 16 16" fill="none" xmlns="http://www.w3.org/2000/svg">
<path d="M9.00016 10H4.00016C2.74283 10 2.11483 10 1.72416 9.60933C1.3335 9.21867 1.3335 8.59067 1.3335 7.33333V4.66667C1.3335 3.40933 1.3335 2.78133 1.72416 2.39067C2.11483 2 2.74283 2 4.00016 2H12.0002C13.2575 2 13.8855 2 14.2762 2.39067C14.6668 2.78133 14.6668 3.40933 14.6668 4.66667V8C14.6668 8.62133 14.6668 8.932 14.5655 9.17667C14.4985 9.33855 14.4002 9.48563 14.2763 9.60952C14.1525 9.7334 14.0054 9.83166 13.8435 9.89867C13.5988 10 13.2882 10 12.6668 10" stroke="white" stroke-linecap="round" stroke-linejoin="round"/>
<path d="M8.66667 11.3337C8.66667 10.8032 8.87738 10.2945 9.25245 9.91944C9.62753 9.54437 10.1362 9.33366 10.6667 9.33366V8.00033C10.6667 7.46989 10.8774 6.96118 11.2525 6.58611C11.6275 6.21104 12.1362 6.00033 12.6667 6.00033V9.66699C12.6667 11.2237 12.6667 12.0017 12.352 12.591C12.1034 13.0561 11.7224 13.437 11.2573 13.6857C10.668 14.0003 9.89 14.0003 8.33333 14.0003H8C6.75733 14.0003 6.136 14.0003 5.64667 13.797C5.32303 13.6631 5.02893 13.4668 4.78117 13.2193C4.53341 12.9718 4.33683 12.6778 4.20267 12.3543C4 11.8643 4 11.243 4 10.0003M9.33333 6.00033C9.33333 6.35395 9.19286 6.69309 8.94281 6.94313C8.69276 7.19318 8.35362 7.33366 8 7.33366C7.64638 7.33366 7.30724 7.19318 7.05719 6.94313C6.80714 6.69309 6.66667 6.35395 6.66667 6.00033C6.66667 5.6467 6.80714 5.30756 7.05719 5.05752C7.30724 4.80747 7.64638 4.66699 8 4.66699C8.35362 4.66699 8.69276 4.80747 8.94281 5.05752C9.19286 5.30756 9.33333 5.6467 9.33333 6.00033Z" stroke="white" stroke-linecap="round" stroke-linejoin="round"/>
</svg>
